<mxfile host="app.diagrams.net" modified="2022-05-01T20:04:35.379Z" agent="5.0 (Windows NT 10.0; Win64; x64) AppleWebKit/537.36 (KHTML, like Gecko) Chrome/100.0.4896.127 Safari/537.36" etag="EQXs60Pl-OTKX0odUHxX" version="17.5.0" type="github">
  <diagram id="3DY8Kd-UJm9eO1XB_vDV" name="Page-1">
    <mxGraphModel dx="1481" dy="739" grid="1" gridSize="10" guides="1" tooltips="1" connect="1" arrows="1" fold="1" page="1" pageScale="1" pageWidth="850" pageHeight="1100" math="1" shadow="0">
      <root>
        <mxCell id="0" />
        <mxCell id="1" parent="0" />
        <mxCell id="iSKcDf-2XlkHLNHQMrs7-1" value="&lt;font style=&quot;font-size: 40px&quot; color=&quot;#ff0000&quot;&gt;~DEMNITARI&lt;br&gt;&quot;STAKEHOLDERS&quot;&lt;br&gt;&lt;/font&gt;" style="text;html=1;align=center;verticalAlign=middle;resizable=0;points=[];autosize=1;strokeColor=none;fillColor=none;rotation=-25;" parent="1" vertex="1">
          <mxGeometry x="-100" y="180" width="370" height="50" as="geometry" />
        </mxCell>
        <mxCell id="iSKcDf-2XlkHLNHQMrs7-2" value="-CONOTATIE" style="text;html=1;align=center;verticalAlign=middle;resizable=0;points=[];autosize=1;strokeColor=none;fillColor=none;fontSize=40;fontColor=#FF0000;" parent="1" vertex="1">
          <mxGeometry x="410" y="200" width="260" height="50" as="geometry" />
        </mxCell>
        <mxCell id="iSKcDf-2XlkHLNHQMrs7-3" value="DICTIONARE&lt;br&gt;K-SKIP-NORM" style="text;html=1;align=center;verticalAlign=middle;resizable=0;points=[];autosize=1;strokeColor=none;fillColor=none;fontSize=40;fontColor=#FF0000;" parent="1" vertex="1">
          <mxGeometry x="140" y="330" width="280" height="100" as="geometry" />
        </mxCell>
        <mxCell id="iSKcDf-2XlkHLNHQMrs7-4" value="" style="ellipse;whiteSpace=wrap;html=1;fontSize=40;fontColor=#FF0000;fillColor=none;strokeColor=#FF0000;" parent="1" vertex="1">
          <mxGeometry x="122.5" y="295" width="315" height="170" as="geometry" />
        </mxCell>
        <mxCell id="iSKcDf-2XlkHLNHQMrs7-5" value="[POSITIVE,&lt;br&gt;NEGATIVE,&lt;br&gt;NEUTRU]" style="text;html=1;align=center;verticalAlign=middle;resizable=0;points=[];autosize=1;strokeColor=none;fillColor=none;fontSize=40;fontColor=#FF0000;" parent="1" vertex="1">
          <mxGeometry x="530" y="320" width="230" height="150" as="geometry" />
        </mxCell>
        <mxCell id="iSKcDf-2XlkHLNHQMrs7-6" value="&amp;nbsp; &amp;nbsp; &amp;nbsp; &amp;nbsp; &amp;nbsp;-DOMENIU&lt;br&gt;&amp;nbsp; &amp;nbsp; &amp;nbsp; &amp;nbsp; &amp;nbsp; &amp;nbsp; &amp;nbsp; &amp;nbsp; &amp;nbsp; &amp;nbsp; &amp;nbsp; &amp;nbsp; &amp;nbsp; &amp;nbsp;-INTENTIA (legilor,etc)&lt;br&gt;-NER" style="text;html=1;align=center;verticalAlign=middle;resizable=0;points=[];autosize=1;strokeColor=none;fillColor=none;fontSize=40;fontColor=#FF0000;" parent="1" vertex="1">
          <mxGeometry x="210" y="540" width="720" height="150" as="geometry" />
        </mxCell>
        <mxCell id="iSKcDf-2XlkHLNHQMrs7-7" value="" style="endArrow=none;html=1;rounded=0;fontSize=40;fontColor=#FF0000;strokeColor=#FF0000;" parent="1" edge="1">
          <mxGeometry width="50" height="50" relative="1" as="geometry">
            <mxPoint x="330" y="300" as="sourcePoint" />
            <mxPoint x="380" y="250" as="targetPoint" />
          </mxGeometry>
        </mxCell>
        <mxCell id="iSKcDf-2XlkHLNHQMrs7-8" value="" style="endArrow=none;html=1;rounded=0;fontSize=40;fontColor=#FF0000;strokeColor=#FF0000;" parent="1" edge="1">
          <mxGeometry width="50" height="50" relative="1" as="geometry">
            <mxPoint x="170" y="319" as="sourcePoint" />
            <mxPoint x="100" y="270" as="targetPoint" />
          </mxGeometry>
        </mxCell>
        <mxCell id="iSKcDf-2XlkHLNHQMrs7-9" value="Subiective Opinion" style="text;html=1;align=center;verticalAlign=middle;resizable=0;points=[];autosize=1;strokeColor=none;fillColor=none;fontSize=40;fontColor=#FF0000;" parent="1" vertex="1">
          <mxGeometry x="520" y="800" width="350" height="50" as="geometry" />
        </mxCell>
        <mxCell id="iSKcDf-2XlkHLNHQMrs7-10" value="" style="rounded=0;whiteSpace=wrap;html=1;fontSize=40;fontColor=#FF0000;strokeColor=#FF0000;fillColor=none;" parent="1" vertex="1">
          <mxGeometry x="520" y="795" width="350" height="60" as="geometry" />
        </mxCell>
        <mxCell id="iSKcDf-2XlkHLNHQMrs7-11" value="LONG EXPRESSION&lt;br&gt;LOOKUP" style="text;html=1;align=center;verticalAlign=middle;resizable=0;points=[];autosize=1;strokeColor=none;fillColor=none;fontSize=40;fontColor=#FF0000;" parent="1" vertex="1">
          <mxGeometry x="510" y="990" width="400" height="100" as="geometry" />
        </mxCell>
        <mxCell id="iSKcDf-2XlkHLNHQMrs7-12" value="" style="rounded=0;whiteSpace=wrap;html=1;fontSize=40;fontColor=#FF0000;strokeColor=#FF0000;fillColor=none;" parent="1" vertex="1">
          <mxGeometry x="510" y="990" width="400" height="100" as="geometry" />
        </mxCell>
        <mxCell id="iSKcDf-2XlkHLNHQMrs7-13" value="" style="endArrow=classic;html=1;rounded=0;fontSize=40;fontColor=#FF0000;strokeColor=#FF0000;exitX=0.5;exitY=1;exitDx=0;exitDy=0;entryX=0.463;entryY=0;entryDx=0;entryDy=0;entryPerimeter=0;strokeWidth=2;" parent="1" source="iSKcDf-2XlkHLNHQMrs7-10" target="iSKcDf-2XlkHLNHQMrs7-12" edge="1">
          <mxGeometry width="50" height="50" relative="1" as="geometry">
            <mxPoint x="750" y="970" as="sourcePoint" />
            <mxPoint x="800" y="920" as="targetPoint" />
          </mxGeometry>
        </mxCell>
        <mxCell id="iSKcDf-2XlkHLNHQMrs7-14" value="" style="endArrow=classic;html=1;rounded=0;fontSize=40;fontColor=#FF0000;strokeColor=#FF0000;exitX=0.5;exitY=0;exitDx=0;exitDy=0;dashed=1;strokeWidth=2;" parent="1" edge="1">
          <mxGeometry width="50" height="50" relative="1" as="geometry">
            <mxPoint x="760" y="985" as="sourcePoint" />
            <mxPoint x="760" y="855" as="targetPoint" />
          </mxGeometry>
        </mxCell>
        <mxCell id="iSKcDf-2XlkHLNHQMrs7-15" value="" style="endArrow=classic;html=1;fontSize=40;fontColor=#FF0000;strokeColor=#FF0000;exitX=0.999;exitY=-0.008;exitDx=0;exitDy=0;exitPerimeter=0;curved=1;strokeWidth=2;entryX=1;entryY=1;entryDx=0;entryDy=0;" parent="1" source="iSKcDf-2XlkHLNHQMrs7-11" target="iSKcDf-2XlkHLNHQMrs7-4" edge="1">
          <mxGeometry width="50" height="50" relative="1" as="geometry">
            <mxPoint x="520" y="970" as="sourcePoint" />
            <mxPoint x="570" y="920" as="targetPoint" />
            <Array as="points">
              <mxPoint x="970" y="730" />
              <mxPoint x="520" y="730" />
              <mxPoint x="420" y="610" />
            </Array>
          </mxGeometry>
        </mxCell>
        <mxCell id="iSKcDf-2XlkHLNHQMrs7-17" value="" style="endArrow=classic;html=1;fontSize=40;fontColor=#FF0000;strokeColor=#FF0000;strokeWidth=2;curved=1;entryX=0;entryY=0;entryDx=0;entryDy=0;exitX=0.655;exitY=0.997;exitDx=0;exitDy=0;exitPerimeter=0;dashed=1;" parent="1" source="iSKcDf-2XlkHLNHQMrs7-4" target="iSKcDf-2XlkHLNHQMrs7-10" edge="1">
          <mxGeometry width="50" height="50" relative="1" as="geometry">
            <mxPoint x="520" y="830" as="sourcePoint" />
            <mxPoint x="570" y="780" as="targetPoint" />
            <Array as="points">
              <mxPoint x="370" y="700" />
            </Array>
          </mxGeometry>
        </mxCell>
        <mxCell id="iSKcDf-2XlkHLNHQMrs7-18" value="" style="endArrow=none;dashed=1;html=1;fontSize=40;fontColor=#FF0000;strokeColor=#FF0000;strokeWidth=2;curved=1;" parent="1" edge="1">
          <mxGeometry width="50" height="50" relative="1" as="geometry">
            <mxPoint x="530" y="690" as="sourcePoint" />
            <mxPoint x="640" y="690" as="targetPoint" />
          </mxGeometry>
        </mxCell>
        <mxCell id="iSKcDf-2XlkHLNHQMrs7-19" value="$$\underset \rightarrow {TEXT}$$" style="text;html=1;align=center;verticalAlign=middle;resizable=0;points=[];autosize=1;strokeColor=none;fillColor=none;fontSize=40;fontColor=#FF0000;" parent="1" vertex="1">
          <mxGeometry x="-670" y="680" width="610" height="50" as="geometry" />
        </mxCell>
        <mxCell id="iSKcDf-2XlkHLNHQMrs7-20" value="TOKENIZER" style="text;html=1;align=center;verticalAlign=middle;resizable=0;points=[];autosize=1;strokeColor=none;fillColor=none;fontSize=40;fontColor=#FF0000;" parent="1" vertex="1">
          <mxGeometry x="-230" y="690" width="240" height="50" as="geometry" />
        </mxCell>
        <mxCell id="iSKcDf-2XlkHLNHQMrs7-21" value="" style="rounded=0;whiteSpace=wrap;html=1;fontSize=40;fontColor=#FF0000;strokeColor=#FF0000;fillColor=none;" parent="1" vertex="1">
          <mxGeometry x="-230" y="690" width="240" height="50" as="geometry" />
        </mxCell>
        <mxCell id="iSKcDf-2XlkHLNHQMrs7-22" value="$$\rightarrow$$" style="text;html=1;align=center;verticalAlign=middle;resizable=0;points=[];autosize=1;strokeColor=none;fillColor=none;fontSize=40;fontColor=#FF0000;" parent="1" vertex="1">
          <mxGeometry x="-90" y="690" width="290" height="50" as="geometry" />
        </mxCell>
        <mxCell id="iSKcDf-2XlkHLNHQMrs7-23" value="$$\square$$" style="text;html=1;align=center;verticalAlign=middle;resizable=0;points=[];autosize=1;strokeColor=none;fillColor=none;fontSize=40;fontColor=#FF0000;" parent="1" vertex="1">
          <mxGeometry x="20" y="640" width="240" height="50" as="geometry" />
        </mxCell>
        <mxCell id="iSKcDf-2XlkHLNHQMrs7-24" value="$$\square$$" style="text;html=1;align=center;verticalAlign=middle;resizable=0;points=[];autosize=1;strokeColor=none;fillColor=none;fontSize=40;fontColor=#FF0000;" parent="1" vertex="1">
          <mxGeometry x="80" y="640" width="240" height="50" as="geometry" />
        </mxCell>
        <mxCell id="iSKcDf-2XlkHLNHQMrs7-25" value="$$\square$$" style="text;html=1;align=center;verticalAlign=middle;resizable=0;points=[];autosize=1;strokeColor=none;fillColor=none;fontSize=40;fontColor=#FF0000;" parent="1" vertex="1">
          <mxGeometry x="140" y="650" width="240" height="50" as="geometry" />
        </mxCell>
        <mxCell id="iSKcDf-2XlkHLNHQMrs7-26" value="$$\square$$" style="text;html=1;align=center;verticalAlign=middle;resizable=0;points=[];autosize=1;strokeColor=none;fillColor=none;fontSize=40;fontColor=#FF0000;" parent="1" vertex="1">
          <mxGeometry x="50" y="690" width="240" height="50" as="geometry" />
        </mxCell>
        <mxCell id="iSKcDf-2XlkHLNHQMrs7-27" value="$$\square$$" style="text;html=1;align=center;verticalAlign=middle;resizable=0;points=[];autosize=1;strokeColor=none;fillColor=none;fontSize=40;fontColor=#FF0000;" parent="1" vertex="1">
          <mxGeometry x="110" y="700" width="240" height="50" as="geometry" />
        </mxCell>
        <mxCell id="iSKcDf-2XlkHLNHQMrs7-28" value="" style="shape=curlyBracket;whiteSpace=wrap;html=1;rounded=1;fontSize=40;fontColor=#FF0000;strokeColor=#FF0000;fillColor=none;rotation=90;" parent="1" vertex="1">
          <mxGeometry x="192" y="540" width="20" height="170" as="geometry" />
        </mxCell>
        <mxCell id="iSKcDf-2XlkHLNHQMrs7-29" value="" style="strokeWidth=2;html=1;shape=mxgraph.flowchart.annotation_1;align=left;pointerEvents=1;fontSize=40;fontColor=#FF0000;fillColor=none;strokeColor=#FF0000;" parent="1" vertex="1">
          <mxGeometry x="102.5" y="640" width="20" height="100" as="geometry" />
        </mxCell>
        <mxCell id="iSKcDf-2XlkHLNHQMrs7-30" value="" style="strokeWidth=2;html=1;shape=mxgraph.flowchart.annotation_1;align=left;pointerEvents=1;fontSize=40;fontColor=#FF0000;fillColor=none;strokeColor=#FF0000;rotation=-180;" parent="1" vertex="1">
          <mxGeometry x="270" y="640" width="20" height="100" as="geometry" />
        </mxCell>
        <mxCell id="iSKcDf-2XlkHLNHQMrs7-32" value="" style="endArrow=classic;html=1;fontSize=40;fontColor=#FF0000;strokeColor=#FF0000;strokeWidth=2;curved=1;entryX=0.456;entryY=1.01;entryDx=0;entryDy=0;entryPerimeter=0;" parent="1" target="iSKcDf-2XlkHLNHQMrs7-4" edge="1">
          <mxGeometry width="50" height="50" relative="1" as="geometry">
            <mxPoint x="200" y="610" as="sourcePoint" />
            <mxPoint x="250" y="560" as="targetPoint" />
            <Array as="points">
              <mxPoint x="200" y="540" />
            </Array>
          </mxGeometry>
        </mxCell>
        <mxCell id="iSKcDf-2XlkHLNHQMrs7-33" value="GET" style="text;html=1;align=center;verticalAlign=middle;resizable=0;points=[];autosize=1;strokeColor=none;fillColor=none;fontSize=40;fontColor=#FF0000;" parent="1" vertex="1">
          <mxGeometry x="150" y="470" width="100" height="50" as="geometry" />
        </mxCell>
        <mxCell id="iSKcDf-2XlkHLNHQMrs7-35" value="$NER$" style="text;html=1;align=center;verticalAlign=middle;resizable=0;points=[];autosize=1;strokeColor=none;fillColor=none;fontSize=40;fontColor=#FF0000;" parent="1" vertex="1">
          <mxGeometry x="-190" y="1110" width="140" height="50" as="geometry" />
        </mxCell>
        <mxCell id="iSKcDf-2XlkHLNHQMrs7-36" value="&lt;font style=&quot;font-size: 60px&quot;&gt;$$\square$$&lt;/font&gt;" style="text;html=1;align=center;verticalAlign=middle;resizable=0;points=[];autosize=1;strokeColor=none;fillColor=none;fontSize=40;fontColor=#FF0000;" parent="1" vertex="1">
          <mxGeometry x="140" y="1010" width="350" height="60" as="geometry" />
        </mxCell>
        <mxCell id="iSKcDf-2XlkHLNHQMrs7-37" value="" style="endArrow=classic;html=1;fontSize=60;fontColor=#FF0000;strokeColor=#FF0000;strokeWidth=2;curved=1;" parent="1" target="iSKcDf-2XlkHLNHQMrs7-36" edge="1">
          <mxGeometry width="50" height="50" relative="1" as="geometry">
            <mxPoint x="360" y="1040" as="sourcePoint" />
            <mxPoint x="410" y="990" as="targetPoint" />
          </mxGeometry>
        </mxCell>
        <mxCell id="iSKcDf-2XlkHLNHQMrs7-38" value="" style="endArrow=classic;html=1;fontSize=60;fontColor=#FF0000;strokeColor=#FF0000;strokeWidth=2;rounded=0;entryX=0.371;entryY=0.5;entryDx=0;entryDy=0;entryPerimeter=0;dashed=1;" parent="1" target="iSKcDf-2XlkHLNHQMrs7-36" edge="1">
          <mxGeometry width="50" height="50" relative="1" as="geometry">
            <mxPoint x="170" y="740" as="sourcePoint" />
            <mxPoint x="230" y="890" as="targetPoint" />
            <Array as="points">
              <mxPoint x="170" y="1040" />
            </Array>
          </mxGeometry>
        </mxCell>
        <mxCell id="iSKcDf-2XlkHLNHQMrs7-39" value="&lt;font style=&quot;font-size: 40px&quot;&gt;FILTER&lt;/font&gt;" style="text;html=1;align=center;verticalAlign=middle;resizable=0;points=[];autosize=1;strokeColor=none;fillColor=none;fontSize=60;fontColor=#FF0000;" parent="1" vertex="1">
          <mxGeometry x="240" y="1055" width="150" height="80" as="geometry" />
        </mxCell>
        <mxCell id="iSKcDf-2XlkHLNHQMrs7-40" value="&quot;VALUE&quot;" style="text;html=1;align=center;verticalAlign=middle;resizable=0;points=[];autosize=1;strokeColor=none;fillColor=none;fontSize=40;fontColor=#FF0000;" parent="1" vertex="1">
          <mxGeometry x="140" y="1135" width="170" height="50" as="geometry" />
        </mxCell>
        <mxCell id="iSKcDf-2XlkHLNHQMrs7-41" value="$TYPE" style="text;html=1;align=center;verticalAlign=middle;resizable=0;points=[];autosize=1;strokeColor=none;fillColor=none;fontSize=40;fontColor=#FF0000;" parent="1" vertex="1">
          <mxGeometry x="355" y="1135" width="140" height="50" as="geometry" />
        </mxCell>
        <mxCell id="iSKcDf-2XlkHLNHQMrs7-42" value="$$\rightarrow$$" style="text;html=1;align=center;verticalAlign=middle;resizable=0;points=[];autosize=1;strokeColor=none;fillColor=none;fontSize=40;fontColor=#FF0000;" parent="1" vertex="1">
          <mxGeometry x="188" y="1135" width="290" height="50" as="geometry" />
        </mxCell>
        <mxCell id="iSKcDf-2XlkHLNHQMrs7-43" value="" style="endArrow=none;html=1;rounded=0;fontSize=40;fontColor=#FF0000;strokeColor=#FF0000;strokeWidth=2;" parent="1" edge="1">
          <mxGeometry width="50" height="50" relative="1" as="geometry">
            <mxPoint x="255" y="1120" as="sourcePoint" />
            <mxPoint x="375" y="1120" as="targetPoint" />
          </mxGeometry>
        </mxCell>
        <mxCell id="iSKcDf-2XlkHLNHQMrs7-44" value="" style="ellipse;whiteSpace=wrap;html=1;fontSize=40;fontColor=#FF0000;strokeColor=#FF0000;fillColor=none;" parent="1" vertex="1">
          <mxGeometry x="120" y="1070" width="420" height="130" as="geometry" />
        </mxCell>
        <mxCell id="iSKcDf-2XlkHLNHQMrs7-45" value="&lt;div style=&quot;text-align: left&quot;&gt;&lt;span&gt;CPACY&lt;/span&gt;&lt;/div&gt;&lt;div style=&quot;text-align: left&quot;&gt;&lt;span&gt;BERT-RO&lt;/span&gt;&lt;/div&gt;" style="text;html=1;align=center;verticalAlign=middle;resizable=0;points=[];autosize=1;strokeColor=none;fillColor=none;fontSize=40;fontColor=#FF0000;" parent="1" vertex="1">
          <mxGeometry x="-170" y="755" width="190" height="100" as="geometry" />
        </mxCell>
        <mxCell id="iSKcDf-2XlkHLNHQMrs7-46" value="" style="endArrow=classic;html=1;rounded=0;fontSize=40;fontColor=#FF0000;strokeColor=#FF0000;strokeWidth=2;entryX=0;entryY=0.25;entryDx=0;entryDy=0;entryPerimeter=0;" parent="1" target="iSKcDf-2XlkHLNHQMrs7-45" edge="1">
          <mxGeometry width="50" height="50" relative="1" as="geometry">
            <mxPoint x="-220" y="740" as="sourcePoint" />
            <mxPoint x="-170" y="820" as="targetPoint" />
            <Array as="points">
              <mxPoint x="-220" y="780" />
            </Array>
          </mxGeometry>
        </mxCell>
        <mxCell id="iSKcDf-2XlkHLNHQMrs7-47" value="" style="endArrow=classic;html=1;rounded=0;fontSize=40;fontColor=#FF0000;strokeColor=#FF0000;strokeWidth=2;entryX=0;entryY=0.25;entryDx=0;entryDy=0;entryPerimeter=0;" parent="1" edge="1">
          <mxGeometry width="50" height="50" relative="1" as="geometry">
            <mxPoint x="-219.99999999999977" y="780" as="sourcePoint" />
            <mxPoint x="-169.99999999999977" y="820" as="targetPoint" />
            <Array as="points">
              <mxPoint x="-220" y="820" />
            </Array>
          </mxGeometry>
        </mxCell>
        <mxCell id="iSKcDf-2XlkHLNHQMrs7-48" value="" style="endArrow=none;dashed=1;html=1;rounded=0;fontSize=40;fontColor=#FF0000;strokeColor=#FF0000;strokeWidth=2;" parent="1" edge="1">
          <mxGeometry width="50" height="50" relative="1" as="geometry">
            <mxPoint x="320" y="1470" as="sourcePoint" />
            <mxPoint x="320" y="1210" as="targetPoint" />
          </mxGeometry>
        </mxCell>
        <mxCell id="iSKcDf-2XlkHLNHQMrs7-49" value="" style="endArrow=none;dashed=1;html=1;rounded=0;fontSize=40;fontColor=#FF0000;strokeColor=#FF0000;strokeWidth=2;" parent="1" edge="1">
          <mxGeometry width="50" height="50" relative="1" as="geometry">
            <mxPoint x="-230" y="1340" as="sourcePoint" />
            <mxPoint x="840" y="1340" as="targetPoint" />
          </mxGeometry>
        </mxCell>
        <mxCell id="iSKcDf-2XlkHLNHQMrs7-50" value="&lt;font style=&quot;font-size: 70px&quot;&gt;$$\frac{\partial TYPE}{\partial t} \neq 0$$&lt;/font&gt;" style="text;html=1;align=center;verticalAlign=middle;resizable=0;points=[];autosize=1;strokeColor=none;fillColor=none;fontSize=40;fontColor=#FF0000;" parent="1" vertex="1">
          <mxGeometry x="-235" y="1550" width="1270" height="60" as="geometry" />
        </mxCell>
      </root>
    </mxGraphModel>
  </diagram>
</mxfile>
